<mxfile host="app.diagrams.net" agent="Mozilla/5.0 (Macintosh; Intel Mac OS X 10_15_7) AppleWebKit/537.36 (KHTML, like Gecko) Chrome/127.0.0.0 Safari/537.36 Edg/127.0.0.0" version="24.7.12" pages="2">
  <diagram id="6G3r_QqAA1fNAYQaFEHI" name="purchase-groceries-online">
    <mxGraphModel dx="4994" dy="2151" grid="1" gridSize="10" guides="1" tooltips="1" connect="1" arrows="1" fold="1" page="1" pageScale="1" pageWidth="2336" pageHeight="1654" math="0" shadow="0">
      <root>
        <mxCell id="0" />
        <mxCell id="1" parent="0" />
        <mxCell id="gWhWabP_F0V6RctqcrPL-1" value="" style="group" parent="1" vertex="1" connectable="0">
          <mxGeometry x="-2147" y="317" width="2120" height="980" as="geometry" />
        </mxCell>
        <mxCell id="nW9fMLdY71jYZeTw1rtJ-126" value="TOPST SCHOOL Tentative Roadmap" style="rounded=0;whiteSpace=wrap;html=1;labelBackgroundColor=none;strokeWidth=1;fillColor=#d5e8d4;fontSize=30;strokeColor=#808080;" parent="gWhWabP_F0V6RctqcrPL-1" vertex="1">
          <mxGeometry width="2120" height="60" as="geometry" />
        </mxCell>
        <mxCell id="nW9fMLdY71jYZeTw1rtJ-128" value="" style="rounded=0;whiteSpace=wrap;html=1;labelBackgroundColor=none;strokeWidth=1;fontSize=30;fillColor=none;strokeColor=#808080;" parent="gWhWabP_F0V6RctqcrPL-1" vertex="1">
          <mxGeometry y="60" width="2120" height="260" as="geometry" />
        </mxCell>
        <mxCell id="nW9fMLdY71jYZeTw1rtJ-129" value="" style="rounded=0;whiteSpace=wrap;html=1;labelBackgroundColor=none;strokeWidth=1;fontSize=30;fillColor=none;strokeColor=#808080;" parent="gWhWabP_F0V6RctqcrPL-1" vertex="1">
          <mxGeometry y="320" width="2120" height="240" as="geometry" />
        </mxCell>
        <mxCell id="nW9fMLdY71jYZeTw1rtJ-130" value="" style="rounded=0;whiteSpace=wrap;html=1;labelBackgroundColor=none;strokeWidth=1;fontSize=30;fillColor=none;strokeColor=#808080;" parent="gWhWabP_F0V6RctqcrPL-1" vertex="1">
          <mxGeometry y="560" width="2120" height="420" as="geometry" />
        </mxCell>
        <mxCell id="nW9fMLdY71jYZeTw1rtJ-104" value="1" style="ellipse;whiteSpace=wrap;html=1;aspect=fixed;fontFamily=Helvetica;fontSize=18;align=center;strokeWidth=1;fillColor=#f5f5f5;strokeColor=#666666;fontColor=#333333;" parent="gWhWabP_F0V6RctqcrPL-1" vertex="1">
          <mxGeometry x="248" y="106" width="25" height="25" as="geometry" />
        </mxCell>
        <mxCell id="nW9fMLdY71jYZeTw1rtJ-106" value="1" style="ellipse;whiteSpace=wrap;html=1;aspect=fixed;fontFamily=Helvetica;fontSize=18;align=center;strokeWidth=1;fillColor=#f5f5f5;strokeColor=#666666;fontColor=#333333;" parent="gWhWabP_F0V6RctqcrPL-1" vertex="1">
          <mxGeometry x="408" y="106" width="25" height="25" as="geometry" />
        </mxCell>
        <mxCell id="nW9fMLdY71jYZeTw1rtJ-108" value="2" style="ellipse;whiteSpace=wrap;html=1;aspect=fixed;fontFamily=Helvetica;fontSize=18;align=center;strokeWidth=1;fillColor=#f5f5f5;strokeColor=#666666;fontColor=#333333;" parent="gWhWabP_F0V6RctqcrPL-1" vertex="1">
          <mxGeometry x="568" y="106" width="25" height="25" as="geometry" />
        </mxCell>
        <mxCell id="nW9fMLdY71jYZeTw1rtJ-114" value="4" style="ellipse;whiteSpace=wrap;html=1;aspect=fixed;fontFamily=Helvetica;fontSize=18;align=center;strokeWidth=1;fillColor=#f5f5f5;strokeColor=#666666;fontColor=#333333;" parent="gWhWabP_F0V6RctqcrPL-1" vertex="1">
          <mxGeometry x="887" y="106" width="25" height="25" as="geometry" />
        </mxCell>
        <mxCell id="nW9fMLdY71jYZeTw1rtJ-115" value="4" style="ellipse;whiteSpace=wrap;html=1;aspect=fixed;fontFamily=Helvetica;fontSize=18;align=center;strokeWidth=1;fillColor=#f5f5f5;strokeColor=#666666;fontColor=#333333;" parent="gWhWabP_F0V6RctqcrPL-1" vertex="1">
          <mxGeometry x="887.5" y="270" width="25" height="25" as="geometry" />
        </mxCell>
        <mxCell id="nW9fMLdY71jYZeTw1rtJ-31" value="getting started&lt;div&gt;guide&lt;/div&gt;" style="rounded=1;whiteSpace=wrap;html=1;fillColor=#dae8fc;strokeColor=#6c8ebf;" parent="gWhWabP_F0V6RctqcrPL-1" vertex="1">
          <mxGeometry x="840" y="200" width="120" height="60" as="geometry" />
        </mxCell>
        <mxCell id="p7bmL97uQ8VLsbdZt5IS-3" value="" style="sketch=0;html=1;aspect=fixed;strokeColor=none;shadow=0;align=center;fillColor=#2D9C5E;verticalAlign=top;labelPosition=center;verticalLabelPosition=bottom;shape=mxgraph.gcp2.check" vertex="1" parent="gWhWabP_F0V6RctqcrPL-1">
          <mxGeometry x="248" y="210" width="25" height="20" as="geometry" />
        </mxCell>
        <mxCell id="p7bmL97uQ8VLsbdZt5IS-4" value="" style="sketch=0;html=1;aspect=fixed;strokeColor=none;shadow=0;align=center;fillColor=#2D9C5E;verticalAlign=top;labelPosition=center;verticalLabelPosition=bottom;shape=mxgraph.gcp2.check" vertex="1" parent="gWhWabP_F0V6RctqcrPL-1">
          <mxGeometry x="408" y="210" width="25" height="20" as="geometry" />
        </mxCell>
        <mxCell id="p7bmL97uQ8VLsbdZt5IS-19" value="" style="edgeStyle=orthogonalEdgeStyle;rounded=0;orthogonalLoop=1;jettySize=auto;html=1;dashed=1;dashPattern=1 4;" edge="1" parent="gWhWabP_F0V6RctqcrPL-1" source="nW9fMLdY71jYZeTw1rtJ-69" target="nW9fMLdY71jYZeTw1rtJ-22">
          <mxGeometry relative="1" as="geometry" />
        </mxCell>
        <mxCell id="nW9fMLdY71jYZeTw1rtJ-69" value="contributions&lt;div&gt;overview&lt;/div&gt;" style="rounded=1;whiteSpace=wrap;html=1;fillColor=#d5e8d4;strokeColor=#82b366;" parent="gWhWabP_F0V6RctqcrPL-1" vertex="1">
          <mxGeometry x="200.5" y="450" width="120" height="60" as="geometry" />
        </mxCell>
        <mxCell id="nW9fMLdY71jYZeTw1rtJ-109" value="2" style="ellipse;whiteSpace=wrap;html=1;aspect=fixed;fontFamily=Helvetica;fontSize=18;align=center;strokeWidth=1;fillColor=#f5f5f5;strokeColor=#666666;fontColor=#333333;" parent="gWhWabP_F0V6RctqcrPL-1" vertex="1">
          <mxGeometry x="248" y="520" width="25" height="25" as="geometry" />
        </mxCell>
        <mxCell id="p7bmL97uQ8VLsbdZt5IS-27" style="edgeStyle=orthogonalEdgeStyle;rounded=0;orthogonalLoop=1;jettySize=auto;html=1;entryX=0;entryY=0.5;entryDx=0;entryDy=0;dashed=1;dashPattern=1 4;" edge="1" parent="gWhWabP_F0V6RctqcrPL-1" source="nW9fMLdY71jYZeTw1rtJ-77" target="nW9fMLdY71jYZeTw1rtJ-28">
          <mxGeometry relative="1" as="geometry">
            <Array as="points">
              <mxPoint x="148" y="400" />
              <mxPoint x="148" y="610" />
            </Array>
          </mxGeometry>
        </mxCell>
        <mxCell id="nW9fMLdY71jYZeTw1rtJ-77" value="git-flow &amp;amp; process&lt;div&gt;diagram&lt;/div&gt;" style="rounded=1;whiteSpace=wrap;html=1;fillColor=#d5e8d4;strokeColor=#82b366;" parent="gWhWabP_F0V6RctqcrPL-1" vertex="1">
          <mxGeometry x="200.5" y="370" width="120" height="60" as="geometry" />
        </mxCell>
        <mxCell id="nW9fMLdY71jYZeTw1rtJ-105" value="1" style="ellipse;whiteSpace=wrap;html=1;aspect=fixed;fontFamily=Helvetica;fontSize=18;align=center;strokeWidth=1;fillColor=#f5f5f5;strokeColor=#666666;fontColor=#333333;" parent="gWhWabP_F0V6RctqcrPL-1" vertex="1">
          <mxGeometry x="248" y="340" width="25" height="25" as="geometry" />
        </mxCell>
        <mxCell id="p7bmL97uQ8VLsbdZt5IS-20" style="edgeStyle=orthogonalEdgeStyle;rounded=0;orthogonalLoop=1;jettySize=auto;html=1;entryX=0.5;entryY=1;entryDx=0;entryDy=0;dashed=1;dashPattern=1 4;" edge="1" parent="gWhWabP_F0V6RctqcrPL-1" source="nW9fMLdY71jYZeTw1rtJ-22" target="nW9fMLdY71jYZeTw1rtJ-26">
          <mxGeometry relative="1" as="geometry" />
        </mxCell>
        <mxCell id="nW9fMLdY71jYZeTw1rtJ-22" value="contributions&lt;div&gt;review&lt;/div&gt;" style="rounded=1;whiteSpace=wrap;html=1;fillColor=#fff2cc;strokeColor=#d6b656;fontStyle=2" parent="gWhWabP_F0V6RctqcrPL-1" vertex="1">
          <mxGeometry x="360.5" y="450" width="120" height="60" as="geometry" />
        </mxCell>
        <mxCell id="p7bmL97uQ8VLsbdZt5IS-28" style="edgeStyle=orthogonalEdgeStyle;rounded=0;orthogonalLoop=1;jettySize=auto;html=1;entryX=1;entryY=0.5;entryDx=0;entryDy=0;dashed=1;dashPattern=1 4;jumpStyle=sharp;" edge="1" parent="gWhWabP_F0V6RctqcrPL-1" source="nW9fMLdY71jYZeTw1rtJ-23" target="nW9fMLdY71jYZeTw1rtJ-68">
          <mxGeometry relative="1" as="geometry">
            <Array as="points">
              <mxPoint x="501" y="400" />
              <mxPoint x="501" y="680" />
            </Array>
          </mxGeometry>
        </mxCell>
        <mxCell id="nW9fMLdY71jYZeTw1rtJ-23" value="github actions&lt;div&gt;setup&lt;/div&gt;" style="rounded=1;whiteSpace=wrap;html=1;fillColor=#d5e8d4;strokeColor=#82b366;" parent="gWhWabP_F0V6RctqcrPL-1" vertex="1">
          <mxGeometry x="360.5" y="370" width="120" height="60" as="geometry" />
        </mxCell>
        <mxCell id="nW9fMLdY71jYZeTw1rtJ-107" value="1" style="ellipse;whiteSpace=wrap;html=1;aspect=fixed;fontFamily=Helvetica;fontSize=18;align=center;strokeWidth=1;fillColor=#f5f5f5;strokeColor=#666666;fontColor=#333333;" parent="gWhWabP_F0V6RctqcrPL-1" vertex="1">
          <mxGeometry x="405.5" y="340" width="25" height="25" as="geometry" />
        </mxCell>
        <mxCell id="p7bmL97uQ8VLsbdZt5IS-30" style="edgeStyle=orthogonalEdgeStyle;rounded=0;orthogonalLoop=1;jettySize=auto;html=1;entryX=0.5;entryY=0;entryDx=0;entryDy=0;dashed=1;dashPattern=1 4;" edge="1" parent="gWhWabP_F0V6RctqcrPL-1" source="nW9fMLdY71jYZeTw1rtJ-26" target="nW9fMLdY71jYZeTw1rtJ-49">
          <mxGeometry relative="1" as="geometry">
            <Array as="points">
              <mxPoint x="658" y="400" />
              <mxPoint x="658" y="598" />
            </Array>
          </mxGeometry>
        </mxCell>
        <mxCell id="nW9fMLdY71jYZeTw1rtJ-26" value="guide corrections" style="rounded=1;whiteSpace=wrap;html=1;fillColor=#d5e8d4;strokeColor=#82b366;" parent="gWhWabP_F0V6RctqcrPL-1" vertex="1">
          <mxGeometry x="520.5" y="370" width="120" height="60" as="geometry" />
        </mxCell>
        <mxCell id="nW9fMLdY71jYZeTw1rtJ-110" value="2" style="ellipse;whiteSpace=wrap;html=1;aspect=fixed;fontFamily=Helvetica;fontSize=18;align=center;strokeWidth=1;fillColor=#f5f5f5;strokeColor=#666666;fontColor=#333333;" parent="gWhWabP_F0V6RctqcrPL-1" vertex="1">
          <mxGeometry x="568" y="340" width="25" height="25" as="geometry" />
        </mxCell>
        <UserObject label="defining&lt;div&gt;automation scope&lt;/div&gt;" link="data:page/id,iSt6Qmezgcpyq-W9V-Go" id="nW9fMLdY71jYZeTw1rtJ-48">
          <mxCell style="rounded=1;whiteSpace=wrap;html=1;fillColor=#d5e8d4;strokeColor=#82b366;" parent="gWhWabP_F0V6RctqcrPL-1" vertex="1">
            <mxGeometry x="680" y="392.5" width="120" height="60" as="geometry" />
          </mxCell>
        </UserObject>
        <mxCell id="p7bmL97uQ8VLsbdZt5IS-21" style="edgeStyle=orthogonalEdgeStyle;rounded=0;orthogonalLoop=1;jettySize=auto;html=1;entryX=0;entryY=0.5;entryDx=0;entryDy=0;dashed=1;dashPattern=1 4;exitX=1;exitY=0.5;exitDx=0;exitDy=0;" edge="1" parent="gWhWabP_F0V6RctqcrPL-1" source="nW9fMLdY71jYZeTw1rtJ-48" target="p7bmL97uQ8VLsbdZt5IS-9">
          <mxGeometry relative="1" as="geometry">
            <Array as="points">
              <mxPoint x="818" y="423" />
              <mxPoint x="818" y="483" />
            </Array>
          </mxGeometry>
        </mxCell>
        <mxCell id="nW9fMLdY71jYZeTw1rtJ-74" value="understanding&lt;div&gt;team&#39;s needs&lt;/div&gt;" style="rounded=1;whiteSpace=wrap;html=1;fillColor=#d5e8d4;strokeColor=#82b366;" parent="gWhWabP_F0V6RctqcrPL-1" vertex="1">
          <mxGeometry x="680" y="452.5" width="120" height="60" as="geometry" />
        </mxCell>
        <mxCell id="nW9fMLdY71jYZeTw1rtJ-113" value="3" style="ellipse;whiteSpace=wrap;html=1;aspect=fixed;fontFamily=Helvetica;fontSize=18;align=center;strokeWidth=1;fillColor=#f5f5f5;strokeColor=#666666;fontColor=#333333;" parent="gWhWabP_F0V6RctqcrPL-1" vertex="1">
          <mxGeometry x="727.5" y="520" width="25" height="25" as="geometry" />
        </mxCell>
        <mxCell id="nW9fMLdY71jYZeTw1rtJ-112" value="3" style="ellipse;whiteSpace=wrap;html=1;aspect=fixed;fontFamily=Helvetica;fontSize=18;align=center;strokeWidth=1;fillColor=#f5f5f5;strokeColor=#666666;fontColor=#333333;" parent="gWhWabP_F0V6RctqcrPL-1" vertex="1">
          <mxGeometry x="727.5" y="361" width="25" height="25" as="geometry" />
        </mxCell>
        <mxCell id="nW9fMLdY71jYZeTw1rtJ-75" value="documentation&lt;div&gt;draft v1.0&lt;/div&gt;" style="rounded=1;whiteSpace=wrap;html=1;fillColor=#d5e8d4;strokeColor=#82b366;" parent="gWhWabP_F0V6RctqcrPL-1" vertex="1">
          <mxGeometry x="840" y="370" width="120" height="60" as="geometry" />
        </mxCell>
        <mxCell id="nW9fMLdY71jYZeTw1rtJ-116" value="4" style="ellipse;whiteSpace=wrap;html=1;aspect=fixed;fontFamily=Helvetica;fontSize=18;align=center;strokeWidth=1;fillColor=#f5f5f5;strokeColor=#666666;fontColor=#333333;" parent="gWhWabP_F0V6RctqcrPL-1" vertex="1">
          <mxGeometry x="887.5" y="336" width="25" height="25" as="geometry" />
        </mxCell>
        <mxCell id="nW9fMLdY71jYZeTw1rtJ-35" value="automation&lt;div&gt;development&lt;/div&gt;" style="rounded=1;whiteSpace=wrap;html=1;fillColor=#d5e8d4;strokeColor=#82b366;" parent="gWhWabP_F0V6RctqcrPL-1" vertex="1">
          <mxGeometry x="1000" y="370" width="120" height="60" as="geometry" />
        </mxCell>
        <mxCell id="p7bmL97uQ8VLsbdZt5IS-24" style="edgeStyle=orthogonalEdgeStyle;rounded=0;orthogonalLoop=1;jettySize=auto;html=1;exitX=0.5;exitY=1;exitDx=0;exitDy=0;entryX=0.5;entryY=0;entryDx=0;entryDy=0;dashed=1;dashPattern=1 4;" edge="1" parent="gWhWabP_F0V6RctqcrPL-1" source="nW9fMLdY71jYZeTw1rtJ-34" target="p7bmL97uQ8VLsbdZt5IS-11">
          <mxGeometry relative="1" as="geometry" />
        </mxCell>
        <mxCell id="nW9fMLdY71jYZeTw1rtJ-34" value="automation&lt;div&gt;testing&lt;/div&gt;" style="rounded=1;whiteSpace=wrap;html=1;fillColor=#d5e8d4;strokeColor=#82b366;" parent="gWhWabP_F0V6RctqcrPL-1" vertex="1">
          <mxGeometry x="1120" y="370" width="120" height="60" as="geometry" />
        </mxCell>
        <mxCell id="p7bmL97uQ8VLsbdZt5IS-25" value="" style="edgeStyle=orthogonalEdgeStyle;rounded=0;orthogonalLoop=1;jettySize=auto;html=1;dashed=1;dashPattern=1 4;" edge="1" parent="gWhWabP_F0V6RctqcrPL-1" source="nW9fMLdY71jYZeTw1rtJ-58" target="nW9fMLdY71jYZeTw1rtJ-38">
          <mxGeometry relative="1" as="geometry" />
        </mxCell>
        <mxCell id="nW9fMLdY71jYZeTw1rtJ-58" value="automation&lt;div&gt;documentation&lt;/div&gt;" style="rounded=1;whiteSpace=wrap;html=1;fillColor=#d5e8d4;strokeColor=#82b366;" parent="gWhWabP_F0V6RctqcrPL-1" vertex="1">
          <mxGeometry x="1240" y="370" width="120" height="60" as="geometry" />
        </mxCell>
        <mxCell id="nW9fMLdY71jYZeTw1rtJ-38" value="training&lt;div&gt;documentation&lt;/div&gt;" style="rounded=1;whiteSpace=wrap;html=1;fillColor=#d5e8d4;strokeColor=#82b366;" parent="gWhWabP_F0V6RctqcrPL-1" vertex="1">
          <mxGeometry x="1400" y="370" width="120" height="60" as="geometry" />
        </mxCell>
        <mxCell id="p7bmL97uQ8VLsbdZt5IS-26" value="" style="edgeStyle=orthogonalEdgeStyle;rounded=0;orthogonalLoop=1;jettySize=auto;html=1;dashed=1;dashPattern=1 4;" edge="1" parent="gWhWabP_F0V6RctqcrPL-1" source="nW9fMLdY71jYZeTw1rtJ-39" target="p7bmL97uQ8VLsbdZt5IS-12">
          <mxGeometry relative="1" as="geometry" />
        </mxCell>
        <mxCell id="nW9fMLdY71jYZeTw1rtJ-39" value="onboarding&lt;div&gt;documentation&lt;/div&gt;" style="rounded=1;whiteSpace=wrap;html=1;fillColor=#d5e8d4;strokeColor=#82b366;" parent="gWhWabP_F0V6RctqcrPL-1" vertex="1">
          <mxGeometry x="1520" y="370" width="120" height="60" as="geometry" />
        </mxCell>
        <mxCell id="nW9fMLdY71jYZeTw1rtJ-40" value="workflow&lt;div&gt;documentation&lt;/div&gt;" style="rounded=1;whiteSpace=wrap;html=1;fillColor=#d5e8d4;strokeColor=#82b366;" parent="gWhWabP_F0V6RctqcrPL-1" vertex="1">
          <mxGeometry x="1640" y="370" width="120" height="60" as="geometry" />
        </mxCell>
        <mxCell id="nW9fMLdY71jYZeTw1rtJ-42" value="comprehensive&lt;div&gt;OS&amp;nbsp;&lt;span style=&quot;background-color: initial;&quot;&gt;support&lt;/span&gt;&lt;/div&gt;" style="rounded=1;whiteSpace=wrap;html=1;fillColor=#f8cecc;strokeColor=#b85450;fontStyle=2" parent="gWhWabP_F0V6RctqcrPL-1" vertex="1">
          <mxGeometry x="1800" y="370" width="120" height="60" as="geometry" />
        </mxCell>
        <mxCell id="nW9fMLdY71jYZeTw1rtJ-59" value="optimized&lt;div&gt;automation&lt;/div&gt;&lt;div&gt;builds&lt;/div&gt;" style="rounded=1;whiteSpace=wrap;html=1;fillColor=#f8cecc;strokeColor=#b85450;fontStyle=2" parent="gWhWabP_F0V6RctqcrPL-1" vertex="1">
          <mxGeometry x="1800" y="440" width="120" height="60" as="geometry" />
        </mxCell>
        <mxCell id="nW9fMLdY71jYZeTw1rtJ-111" value="3" style="ellipse;whiteSpace=wrap;html=1;aspect=fixed;fontFamily=Helvetica;fontSize=18;align=center;strokeWidth=1;fillColor=#f5f5f5;strokeColor=#666666;fontColor=#333333;" parent="gWhWabP_F0V6RctqcrPL-1" vertex="1">
          <mxGeometry x="727.5" y="106" width="25" height="25" as="geometry" />
        </mxCell>
        <mxCell id="p7bmL97uQ8VLsbdZt5IS-22" style="edgeStyle=orthogonalEdgeStyle;rounded=0;orthogonalLoop=1;jettySize=auto;html=1;entryX=0;entryY=0.5;entryDx=0;entryDy=0;dashed=1;dashPattern=1 4;" edge="1" parent="gWhWabP_F0V6RctqcrPL-1" source="p7bmL97uQ8VLsbdZt5IS-9" target="nW9fMLdY71jYZeTw1rtJ-35">
          <mxGeometry relative="1" as="geometry">
            <Array as="points">
              <mxPoint x="978" y="483" />
              <mxPoint x="978" y="400" />
            </Array>
          </mxGeometry>
        </mxCell>
        <mxCell id="p7bmL97uQ8VLsbdZt5IS-9" value="automation&lt;div&gt;review&lt;/div&gt;" style="rounded=1;whiteSpace=wrap;html=1;fillColor=#fff2cc;strokeColor=#d6b656;fontStyle=2" vertex="1" parent="gWhWabP_F0V6RctqcrPL-1">
          <mxGeometry x="840" y="452.5" width="120" height="60" as="geometry" />
        </mxCell>
        <mxCell id="p7bmL97uQ8VLsbdZt5IS-10" value="4" style="ellipse;whiteSpace=wrap;html=1;aspect=fixed;fontFamily=Helvetica;fontSize=18;align=center;strokeWidth=1;fillColor=#f5f5f5;strokeColor=#666666;fontColor=#333333;" vertex="1" parent="gWhWabP_F0V6RctqcrPL-1">
          <mxGeometry x="887" y="520" width="25" height="25" as="geometry" />
        </mxCell>
        <mxCell id="p7bmL97uQ8VLsbdZt5IS-11" value="automation build&lt;div&gt;review&lt;/div&gt;" style="rounded=1;whiteSpace=wrap;html=1;fillColor=#fff2cc;strokeColor=#d6b656;fontStyle=2" vertex="1" parent="gWhWabP_F0V6RctqcrPL-1">
          <mxGeometry x="1120" y="452.5" width="120" height="60" as="geometry" />
        </mxCell>
        <mxCell id="p7bmL97uQ8VLsbdZt5IS-12" value="automation build&lt;div&gt;review&lt;/div&gt;" style="rounded=1;whiteSpace=wrap;html=1;fillColor=#fff2cc;strokeColor=#d6b656;fontStyle=2" vertex="1" parent="gWhWabP_F0V6RctqcrPL-1">
          <mxGeometry x="1520" y="450" width="120" height="60" as="geometry" />
        </mxCell>
        <mxCell id="nW9fMLdY71jYZeTw1rtJ-28" value="overview &amp;amp; UML&lt;div&gt;diagram&lt;/div&gt;" style="rounded=1;whiteSpace=wrap;html=1;fillColor=#f8cecc;strokeColor=#b85450;fontStyle=2" parent="gWhWabP_F0V6RctqcrPL-1" vertex="1">
          <mxGeometry x="360.5" y="580" width="120" height="60" as="geometry" />
        </mxCell>
        <mxCell id="nW9fMLdY71jYZeTw1rtJ-68" value="auto-branch&lt;div&gt;deletion&lt;/div&gt;" style="rounded=1;whiteSpace=wrap;html=1;fillColor=#f8cecc;strokeColor=#b85450;fontStyle=2" parent="gWhWabP_F0V6RctqcrPL-1" vertex="1">
          <mxGeometry x="360.5" y="650" width="120" height="60" as="geometry" />
        </mxCell>
        <mxCell id="nW9fMLdY71jYZeTw1rtJ-78" value="dependabot&lt;div&gt;checks&lt;/div&gt;" style="rounded=1;whiteSpace=wrap;html=1;fillColor=#f8cecc;strokeColor=#b85450;fontStyle=2" parent="gWhWabP_F0V6RctqcrPL-1" vertex="1">
          <mxGeometry x="360.5" y="710" width="120" height="60" as="geometry" />
        </mxCell>
        <mxCell id="nW9fMLdY71jYZeTw1rtJ-80" value="deployment&lt;div&gt;review&lt;/div&gt;" style="rounded=1;whiteSpace=wrap;html=1;fillColor=#f8cecc;strokeColor=#b85450;fontStyle=2" parent="gWhWabP_F0V6RctqcrPL-1" vertex="1">
          <mxGeometry x="360.5" y="770" width="120" height="60" as="geometry" />
        </mxCell>
        <mxCell id="p7bmL97uQ8VLsbdZt5IS-15" value="1" style="ellipse;whiteSpace=wrap;html=1;aspect=fixed;fontFamily=Helvetica;fontSize=18;align=center;strokeWidth=1;fillColor=#f5f5f5;strokeColor=#666666;fontColor=#333333;" vertex="1" parent="gWhWabP_F0V6RctqcrPL-1">
          <mxGeometry x="320.5" y="597.5" width="25" height="25" as="geometry" />
        </mxCell>
        <mxCell id="p7bmL97uQ8VLsbdZt5IS-17" value="1" style="ellipse;whiteSpace=wrap;html=1;aspect=fixed;fontFamily=Helvetica;fontSize=18;align=center;strokeWidth=1;fillColor=#f5f5f5;strokeColor=#666666;fontColor=#333333;" vertex="1" parent="gWhWabP_F0V6RctqcrPL-1">
          <mxGeometry x="320.5" y="727.5" width="25" height="25" as="geometry" />
        </mxCell>
        <UserObject label="contributions&lt;div&gt;nuances&lt;/div&gt;" link="data:page/id,iSt6Qmezgcpyq-W9V-Go" id="nW9fMLdY71jYZeTw1rtJ-49">
          <mxCell style="rounded=1;whiteSpace=wrap;html=1;fillColor=#f8cecc;strokeColor=#b85450;fontStyle=2" parent="gWhWabP_F0V6RctqcrPL-1" vertex="1">
            <mxGeometry x="598" y="650" width="120" height="60" as="geometry" />
          </mxCell>
        </UserObject>
        <mxCell id="p7bmL97uQ8VLsbdZt5IS-29" value="2" style="ellipse;whiteSpace=wrap;html=1;aspect=fixed;fontFamily=Helvetica;fontSize=18;align=center;strokeWidth=1;fillColor=#f5f5f5;strokeColor=#666666;fontColor=#333333;" vertex="1" parent="gWhWabP_F0V6RctqcrPL-1">
          <mxGeometry x="645.5" y="718" width="25" height="25" as="geometry" />
        </mxCell>
        <mxCell id="nW9fMLdY71jYZeTw1rtJ-61" value="git automations" style="rounded=1;whiteSpace=wrap;html=1;fillColor=#f8cecc;strokeColor=#b85450;fontStyle=2" parent="gWhWabP_F0V6RctqcrPL-1" vertex="1">
          <mxGeometry x="1960" y="370" width="120" height="60" as="geometry" />
        </mxCell>
        <mxCell id="nW9fMLdY71jYZeTw1rtJ-84" value="red: out of scope for current release" style="rounded=1;whiteSpace=wrap;html=1;fillColor=#f8cecc;strokeColor=#b85450;fontStyle=0" parent="gWhWabP_F0V6RctqcrPL-1" vertex="1">
          <mxGeometry x="1351.25" y="850" width="120" height="60" as="geometry" />
        </mxCell>
        <mxCell id="nW9fMLdY71jYZeTw1rtJ-94" value="yellow: review needed" style="rounded=1;whiteSpace=wrap;html=1;strokeWidth=1;fillColor=#fff2cc;strokeColor=#d6b656;" parent="gWhWabP_F0V6RctqcrPL-1" vertex="1">
          <mxGeometry x="1485.25" y="850" width="120" height="60" as="geometry" />
        </mxCell>
        <mxCell id="nW9fMLdY71jYZeTw1rtJ-124" value="" style="group" parent="gWhWabP_F0V6RctqcrPL-1" vertex="1" connectable="0">
          <mxGeometry x="2002.5" y="855" width="77.5" height="50" as="geometry" />
        </mxCell>
        <mxCell id="nW9fMLdY71jYZeTw1rtJ-122" value="1" style="ellipse;whiteSpace=wrap;html=1;aspect=fixed;fontFamily=Helvetica;fontSize=18;fontColor=#333333;align=center;strokeColor=#666666;strokeWidth=1;fillColor=#f5f5f5;" parent="nW9fMLdY71jYZeTw1rtJ-124" vertex="1">
          <mxGeometry x="23.75" y="5" width="25" height="25" as="geometry" />
        </mxCell>
        <mxCell id="nW9fMLdY71jYZeTw1rtJ-123" value="Sprint week" style="text;html=1;strokeColor=none;fillColor=none;align=center;verticalAlign=middle;whiteSpace=wrap;rounded=0;fontSize=12;" parent="nW9fMLdY71jYZeTw1rtJ-124" vertex="1">
          <mxGeometry y="30" width="77.5" height="20" as="geometry" />
        </mxCell>
        <mxCell id="nW9fMLdY71jYZeTw1rtJ-131" value="" style="endArrow=classic;html=1;fontSize=30;fontColor=#000000;dashed=1;dashPattern=1 4;" parent="gWhWabP_F0V6RctqcrPL-1" edge="1">
          <mxGeometry width="50" height="50" relative="1" as="geometry">
            <mxPoint x="1619.25" y="930" as="sourcePoint" />
            <mxPoint x="1849.25" y="930" as="targetPoint" />
          </mxGeometry>
        </mxCell>
        <mxCell id="nW9fMLdY71jYZeTw1rtJ-132" value="&lt;font style=&quot;font-size: 12px&quot;&gt;dependency&lt;/font&gt;" style="edgeLabel;html=1;align=center;verticalAlign=middle;resizable=0;points=[];fontSize=30;fontColor=#000000;labelBackgroundColor=none;" parent="nW9fMLdY71jYZeTw1rtJ-131" vertex="1" connectable="0">
          <mxGeometry x="-0.2041" y="4" relative="1" as="geometry">
            <mxPoint x="28" y="14" as="offset" />
          </mxGeometry>
        </mxCell>
        <mxCell id="mJ4_hJBow98ez9A4RSFs-2" value="" style="group" parent="gWhWabP_F0V6RctqcrPL-1" vertex="1" connectable="0">
          <mxGeometry x="1619.25" y="850" width="240" height="60" as="geometry" />
        </mxCell>
        <mxCell id="qUOdwgdxU_DM8I0__7e0-1" value="" style="rounded=1;whiteSpace=wrap;html=1;strokeColor=#82b366;strokeWidth=1;fillColor=#d5e8d4;" parent="mJ4_hJBow98ez9A4RSFs-2" vertex="1">
          <mxGeometry width="120" height="60" as="geometry" />
        </mxCell>
        <mxCell id="qUOdwgdxU_DM8I0__7e0-2" value="" style="rounded=1;whiteSpace=wrap;html=1;strokeColor=#82b366;strokeWidth=1;fillColor=#d5e8d4;" parent="mJ4_hJBow98ez9A4RSFs-2" vertex="1">
          <mxGeometry x="120" width="120" height="60" as="geometry" />
        </mxCell>
        <mxCell id="qUOdwgdxU_DM8I0__7e0-3" value="touching tasks: dependency" style="text;html=1;strokeColor=none;fillColor=none;align=center;verticalAlign=middle;whiteSpace=wrap;rounded=0;" parent="mJ4_hJBow98ez9A4RSFs-2" vertex="1">
          <mxGeometry x="40" y="20" width="160" height="20" as="geometry" />
        </mxCell>
        <mxCell id="p7bmL97uQ8VLsbdZt5IS-7" value="Feature Complete" style="sketch=0;html=1;aspect=fixed;strokeColor=none;shadow=0;align=center;fillColor=#2D9C5E;verticalAlign=top;labelPosition=center;verticalLabelPosition=bottom;shape=mxgraph.gcp2.check" vertex="1" parent="gWhWabP_F0V6RctqcrPL-1">
          <mxGeometry x="1919.25" y="860" width="25" height="20" as="geometry" />
        </mxCell>
        <mxCell id="nW9fMLdY71jYZeTw1rtJ-65" style="edgeStyle=orthogonalEdgeStyle;rounded=0;orthogonalLoop=1;jettySize=auto;html=1;dashed=1;dashPattern=1 4;" parent="1" source="nW9fMLdY71jYZeTw1rtJ-47" target="nW9fMLdY71jYZeTw1rtJ-37" edge="1">
          <mxGeometry relative="1" as="geometry">
            <Array as="points">
              <mxPoint x="-1407" y="417" />
              <mxPoint x="-687" y="417" />
            </Array>
          </mxGeometry>
        </mxCell>
        <mxCell id="nW9fMLdY71jYZeTw1rtJ-51" style="rounded=0;orthogonalLoop=1;jettySize=auto;html=1;dashed=1;dashPattern=1 4;edgeStyle=orthogonalEdgeStyle;" parent="1" source="nW9fMLdY71jYZeTw1rtJ-47" target="nW9fMLdY71jYZeTw1rtJ-45" edge="1">
          <mxGeometry relative="1" as="geometry">
            <Array as="points">
              <mxPoint x="-1407" y="647" />
              <mxPoint x="-1329" y="647" />
              <mxPoint x="-1329" y="997" />
            </Array>
          </mxGeometry>
        </mxCell>
        <mxCell id="nW9fMLdY71jYZeTw1rtJ-54" style="edgeStyle=orthogonalEdgeStyle;rounded=0;orthogonalLoop=1;jettySize=auto;html=1;dashed=1;dashPattern=1 4;" parent="1" source="nW9fMLdY71jYZeTw1rtJ-47" target="nW9fMLdY71jYZeTw1rtJ-53" edge="1">
          <mxGeometry relative="1" as="geometry">
            <Array as="points">
              <mxPoint x="-1407" y="417" />
              <mxPoint x="-1087" y="417" />
            </Array>
          </mxGeometry>
        </mxCell>
        <mxCell id="nW9fMLdY71jYZeTw1rtJ-66" style="edgeStyle=orthogonalEdgeStyle;rounded=0;orthogonalLoop=1;jettySize=auto;html=1;dashed=1;dashPattern=1 4;" parent="1" source="nW9fMLdY71jYZeTw1rtJ-47" target="nW9fMLdY71jYZeTw1rtJ-41" edge="1">
          <mxGeometry relative="1" as="geometry">
            <Array as="points">
              <mxPoint x="-1407" y="417" />
              <mxPoint x="-287" y="417" />
            </Array>
          </mxGeometry>
        </mxCell>
        <mxCell id="nW9fMLdY71jYZeTw1rtJ-67" style="edgeStyle=orthogonalEdgeStyle;rounded=0;orthogonalLoop=1;jettySize=auto;html=1;dashed=1;dashPattern=1 4;" parent="1" source="nW9fMLdY71jYZeTw1rtJ-111" target="nW9fMLdY71jYZeTw1rtJ-60" edge="1">
          <mxGeometry relative="1" as="geometry">
            <Array as="points">
              <mxPoint x="-127" y="417" />
            </Array>
          </mxGeometry>
        </mxCell>
        <mxCell id="nW9fMLdY71jYZeTw1rtJ-21" value="contributions&lt;div&gt;guide&lt;/div&gt;" style="rounded=1;whiteSpace=wrap;html=1;fillColor=#dae8fc;strokeColor=#6c8ebf;" parent="1" vertex="1">
          <mxGeometry x="-1627" y="457" width="120" height="60" as="geometry" />
        </mxCell>
        <mxCell id="nW9fMLdY71jYZeTw1rtJ-24" value="ci/cd pipeline&lt;div&gt;setup&lt;/div&gt;" style="rounded=1;whiteSpace=wrap;html=1;fillColor=#dae8fc;strokeColor=#6c8ebf;" parent="1" vertex="1">
          <mxGeometry x="-1787" y="457" width="120" height="60" as="geometry" />
        </mxCell>
        <mxCell id="nW9fMLdY71jYZeTw1rtJ-70" style="edgeStyle=orthogonalEdgeStyle;rounded=0;orthogonalLoop=1;jettySize=auto;html=1;dashed=1;dashPattern=1 4;exitX=1;exitY=0.5;exitDx=0;exitDy=0;" parent="1" source="nW9fMLdY71jYZeTw1rtJ-29" target="nW9fMLdY71jYZeTw1rtJ-53" edge="1">
          <mxGeometry relative="1" as="geometry">
            <Array as="points">
              <mxPoint x="-1169" y="487" />
              <mxPoint x="-1169" y="487" />
            </Array>
          </mxGeometry>
        </mxCell>
        <mxCell id="nW9fMLdY71jYZeTw1rtJ-29" value="initial&lt;div&gt;documentation&lt;/div&gt;" style="rounded=1;whiteSpace=wrap;html=1;fillColor=#dae8fc;strokeColor=#6c8ebf;" parent="1" vertex="1">
          <mxGeometry x="-1307" y="457" width="120" height="60" as="geometry" />
        </mxCell>
        <mxCell id="nW9fMLdY71jYZeTw1rtJ-32" value="support for&lt;div&gt;multiple OS&lt;/div&gt;" style="rounded=1;whiteSpace=wrap;html=1;fillColor=#f8cecc;strokeColor=#b85450;fontStyle=2" parent="1" vertex="1">
          <mxGeometry x="-1317" y="897" width="120" height="60" as="geometry" />
        </mxCell>
        <mxCell id="nW9fMLdY71jYZeTw1rtJ-72" style="edgeStyle=orthogonalEdgeStyle;rounded=0;orthogonalLoop=1;jettySize=auto;html=1;dashed=1;dashPattern=1 4;exitX=1;exitY=0.5;exitDx=0;exitDy=0;entryX=0;entryY=0.5;entryDx=0;entryDy=0;" parent="1" source="nW9fMLdY71jYZeTw1rtJ-37" target="nW9fMLdY71jYZeTw1rtJ-41" edge="1">
          <mxGeometry relative="1" as="geometry">
            <Array as="points">
              <mxPoint x="-479" y="487" />
              <mxPoint x="-479" y="487" />
            </Array>
          </mxGeometry>
        </mxCell>
        <mxCell id="nW9fMLdY71jYZeTw1rtJ-37" value="automation&lt;div&gt;documentation&lt;/div&gt;" style="rounded=1;whiteSpace=wrap;html=1;fillColor=#dae8fc;strokeColor=#6c8ebf;" parent="1" vertex="1">
          <mxGeometry x="-747" y="457" width="120" height="60" as="geometry" />
        </mxCell>
        <mxCell id="p7bmL97uQ8VLsbdZt5IS-31" style="edgeStyle=orthogonalEdgeStyle;rounded=0;orthogonalLoop=1;jettySize=auto;html=1;dashed=1;dashPattern=1 4;" edge="1" parent="1" source="nW9fMLdY71jYZeTw1rtJ-41" target="nW9fMLdY71jYZeTw1rtJ-42">
          <mxGeometry relative="1" as="geometry" />
        </mxCell>
        <mxCell id="nW9fMLdY71jYZeTw1rtJ-41" value="automation&lt;div&gt;toolset&lt;/div&gt;" style="rounded=1;whiteSpace=wrap;html=1;fillColor=#f8cecc;strokeColor=#b85450;fontStyle=2" parent="1" vertex="1">
          <mxGeometry x="-347" y="457" width="120" height="60" as="geometry" />
        </mxCell>
        <mxCell id="nW9fMLdY71jYZeTw1rtJ-45" value="feature freeze" style="rounded=1;whiteSpace=wrap;html=1;fillColor=#f8cecc;strokeColor=#b85450;fontStyle=2" parent="1" vertex="1">
          <mxGeometry x="-1317" y="967" width="120" height="60" as="geometry" />
        </mxCell>
        <UserObject label="automation&lt;div&gt;overview&lt;/div&gt;" link="data:page/id,iSt6Qmezgcpyq-W9V-Go" id="nW9fMLdY71jYZeTw1rtJ-47">
          <mxCell style="rounded=1;whiteSpace=wrap;html=1;fillColor=#dae8fc;strokeColor=#6c8ebf;" parent="1" vertex="1">
            <mxGeometry x="-1467" y="457" width="120" height="60" as="geometry" />
          </mxCell>
        </UserObject>
        <mxCell id="nW9fMLdY71jYZeTw1rtJ-71" style="edgeStyle=orthogonalEdgeStyle;rounded=0;orthogonalLoop=1;jettySize=auto;html=1;dashed=1;dashPattern=1 4;exitX=1;exitY=0.5;exitDx=0;exitDy=0;entryX=0;entryY=0.5;entryDx=0;entryDy=0;" parent="1" source="nW9fMLdY71jYZeTw1rtJ-53" target="nW9fMLdY71jYZeTw1rtJ-37" edge="1">
          <mxGeometry relative="1" as="geometry">
            <Array as="points">
              <mxPoint x="-889" y="487" />
              <mxPoint x="-889" y="487" />
            </Array>
          </mxGeometry>
        </mxCell>
        <mxCell id="nW9fMLdY71jYZeTw1rtJ-53" value="training &amp;amp;&lt;div&gt;onboarding&lt;/div&gt;" style="rounded=1;whiteSpace=wrap;html=1;fillColor=#dae8fc;strokeColor=#6c8ebf;" parent="1" vertex="1">
          <mxGeometry x="-1147" y="457" width="120" height="60" as="geometry" />
        </mxCell>
        <mxCell id="p7bmL97uQ8VLsbdZt5IS-32" style="edgeStyle=orthogonalEdgeStyle;rounded=0;orthogonalLoop=1;jettySize=auto;html=1;dashed=1;dashPattern=1 4;" edge="1" parent="1" source="nW9fMLdY71jYZeTw1rtJ-60" target="nW9fMLdY71jYZeTw1rtJ-61">
          <mxGeometry relative="1" as="geometry" />
        </mxCell>
        <mxCell id="nW9fMLdY71jYZeTw1rtJ-60" value="&lt;div&gt;feature requests&lt;/div&gt;&lt;div&gt;for automations&lt;/div&gt;" style="rounded=1;whiteSpace=wrap;html=1;fillColor=#f8cecc;strokeColor=#b85450;fontStyle=2" parent="1" vertex="1">
          <mxGeometry x="-187" y="457" width="120" height="60" as="geometry" />
        </mxCell>
        <mxCell id="nW9fMLdY71jYZeTw1rtJ-76" value="process flow&lt;div&gt;diagram&lt;/div&gt;" style="rounded=1;whiteSpace=wrap;html=1;fillColor=#dae8fc;strokeColor=#6c8ebf;" parent="1" vertex="1">
          <mxGeometry x="-1947" y="457" width="120" height="60" as="geometry" />
        </mxCell>
        <mxCell id="mJ4_hJBow98ez9A4RSFs-1" value="TOPST SCHOOL tentative story map" style="text;html=1;strokeColor=none;fillColor=none;align=center;verticalAlign=middle;whiteSpace=wrap;rounded=0;fontSize=20;fontStyle=2" parent="1" vertex="1">
          <mxGeometry x="-1602" y="1317" width="1030" height="20" as="geometry" />
        </mxCell>
        <mxCell id="nW9fMLdY71jYZeTw1rtJ-81" value="&lt;b&gt;&lt;font style=&quot;font-size: 20px&quot;&gt;Activities&lt;/font&gt;&lt;/b&gt;" style="text;html=1;strokeColor=none;fillColor=none;align=center;verticalAlign=middle;whiteSpace=wrap;rounded=0;" parent="1" vertex="1">
          <mxGeometry x="-2269" y="477" width="40" height="20" as="geometry" />
        </mxCell>
        <mxCell id="nW9fMLdY71jYZeTw1rtJ-82" value="&lt;b&gt;&lt;font style=&quot;font-size: 20px&quot;&gt;Tasks&lt;/font&gt;&lt;/b&gt;" style="text;html=1;strokeColor=none;fillColor=none;align=center;verticalAlign=middle;whiteSpace=wrap;rounded=0;" parent="1" vertex="1">
          <mxGeometry x="-2289" y="677" width="40" height="20" as="geometry" />
        </mxCell>
        <mxCell id="nW9fMLdY71jYZeTw1rtJ-83" value="&lt;b&gt;&lt;font style=&quot;font-size: 20px&quot;&gt;Sub-tasks&lt;/font&gt;&lt;/b&gt;" style="text;html=1;strokeColor=none;fillColor=none;align=center;verticalAlign=middle;whiteSpace=wrap;rounded=0;" parent="1" vertex="1">
          <mxGeometry x="-2309" y="947" width="130" height="20" as="geometry" />
        </mxCell>
      </root>
    </mxGraphModel>
  </diagram>
  <diagram id="iSt6Qmezgcpyq-W9V-Go" name="update-account">
    <mxGraphModel dx="1957" dy="1515" grid="1" gridSize="10" guides="1" tooltips="1" connect="1" arrows="1" fold="1" page="1" pageScale="1" pageWidth="1654" pageHeight="1169" math="0" shadow="0">
      <root>
        <mxCell id="OtLjK1SxLUBlRe3WaIa--0" />
        <mxCell id="OtLjK1SxLUBlRe3WaIa--1" parent="OtLjK1SxLUBlRe3WaIa--0" />
        <mxCell id="OtLjK1SxLUBlRe3WaIa--2" value="&lt;font style=&quot;font-size: 16px&quot;&gt;Customer wants to use their account&lt;/font&gt;" style="shape=table;childLayout=tableLayout;rowLines=0;columnLines=0;startSize=40;html=1;whiteSpace=wrap;collapsible=0;recursiveResize=0;expand=0;pointerEvents=0;fontStyle=1;align=center;labelBackgroundColor=none;strokeWidth=1;fontSize=30;fillColor=#f5f5f5;strokeColor=#666666;fontColor=#333333;" vertex="1" parent="OtLjK1SxLUBlRe3WaIa--1">
          <mxGeometry x="27" y="30" width="1600" height="930" as="geometry" />
        </mxCell>
        <mxCell id="OtLjK1SxLUBlRe3WaIa--3" value="Activities" style="swimlane;horizontal=0;points=[[0,0.5],[1,0.5]];portConstraint=eastwest;startSize=40;html=1;whiteSpace=wrap;collapsible=0;recursiveResize=0;expand=0;pointerEvents=0;fontStyle=1;fillColor=#d5e8d4;strokeColor=#82b366;" vertex="1" parent="OtLjK1SxLUBlRe3WaIa--2">
          <mxGeometry y="40" width="1600" height="296" as="geometry" />
        </mxCell>
        <mxCell id="OtLjK1SxLUBlRe3WaIa--25" value="Log in" style="swimlane;connectable=0;startSize=40;html=1;whiteSpace=wrap;collapsible=0;recursiveResize=0;expand=0;pointerEvents=0;fillColor=#f5f5f5;strokeColor=#666666;fontColor=#333333;" vertex="1" parent="OtLjK1SxLUBlRe3WaIa--3">
          <mxGeometry x="40" width="170" height="296" as="geometry" />
        </mxCell>
        <mxCell id="OtLjK1SxLUBlRe3WaIa--28" value="Enter username and password" style="rounded=1;whiteSpace=wrap;html=1;labelBackgroundColor=none;strokeWidth=1;fontSize=12;fillColor=#d5e8d4;strokeColor=#82b366;" vertex="1" parent="OtLjK1SxLUBlRe3WaIa--25">
          <mxGeometry x="20" y="60" width="120" height="60" as="geometry" />
        </mxCell>
        <mxCell id="OtLjK1SxLUBlRe3WaIa--4" value="Create a new account" style="swimlane;connectable=0;startSize=40;html=1;whiteSpace=wrap;collapsible=0;recursiveResize=0;expand=0;pointerEvents=0;fillColor=#f5f5f5;strokeColor=#666666;fontColor=#333333;" vertex="1" parent="OtLjK1SxLUBlRe3WaIa--3">
          <mxGeometry x="210" width="270" height="296" as="geometry" />
        </mxCell>
        <mxCell id="OtLjK1SxLUBlRe3WaIa--33" value="enter new username (email) and password" style="rounded=1;whiteSpace=wrap;html=1;labelBackgroundColor=none;strokeWidth=1;fontSize=12;fillColor=#d5e8d4;strokeColor=#82b366;" vertex="1" parent="OtLjK1SxLUBlRe3WaIa--4">
          <mxGeometry x="14" y="60" width="120" height="60" as="geometry" />
        </mxCell>
        <mxCell id="OtLjK1SxLUBlRe3WaIa--6" value="Update contact details" style="swimlane;connectable=0;startSize=40;html=1;whiteSpace=wrap;collapsible=0;recursiveResize=0;expand=0;pointerEvents=0;fillColor=#f5f5f5;strokeColor=#666666;fontColor=#333333;" vertex="1" parent="OtLjK1SxLUBlRe3WaIa--3">
          <mxGeometry x="480" width="280" height="296" as="geometry" />
        </mxCell>
        <mxCell id="OtLjK1SxLUBlRe3WaIa--34" value="Add new delivery address" style="rounded=1;whiteSpace=wrap;html=1;strokeWidth=1;fillColor=#d5e8d4;strokeColor=#82b366;" vertex="1" parent="OtLjK1SxLUBlRe3WaIa--6">
          <mxGeometry x="18" y="60" width="120" height="60" as="geometry" />
        </mxCell>
        <mxCell id="OtLjK1SxLUBlRe3WaIa--35" value="Add new phone number" style="rounded=1;whiteSpace=wrap;html=1;strokeWidth=1;fillColor=#d5e8d4;strokeColor=#82b366;" vertex="1" parent="OtLjK1SxLUBlRe3WaIa--6">
          <mxGeometry x="18" y="130" width="120" height="60" as="geometry" />
        </mxCell>
        <mxCell id="UWbwYJlnjAnOrRLH9oln-3" value="Update email address (username)" style="rounded=1;whiteSpace=wrap;html=1;strokeWidth=1;fillColor=#d5e8d4;strokeColor=#82b366;" vertex="1" parent="OtLjK1SxLUBlRe3WaIa--6">
          <mxGeometry x="18" y="200" width="120" height="60" as="geometry" />
        </mxCell>
        <mxCell id="OtLjK1SxLUBlRe3WaIa--18" value="Update payment details" style="swimlane;connectable=0;startSize=40;html=1;whiteSpace=wrap;collapsible=0;recursiveResize=0;expand=0;pointerEvents=0;fillColor=#f5f5f5;strokeColor=#666666;fontColor=#333333;" vertex="1" parent="OtLjK1SxLUBlRe3WaIa--3">
          <mxGeometry x="760" width="270" height="296" as="geometry" />
        </mxCell>
        <mxCell id="OtLjK1SxLUBlRe3WaIa--36" value="Add new payment method" style="rounded=1;whiteSpace=wrap;html=1;strokeWidth=1;fillColor=#d5e8d4;strokeColor=#82b366;" vertex="1" parent="OtLjK1SxLUBlRe3WaIa--18">
          <mxGeometry x="12" y="60" width="120" height="60" as="geometry" />
        </mxCell>
        <mxCell id="OtLjK1SxLUBlRe3WaIa--21" value="Review past orders" style="swimlane;connectable=0;startSize=40;html=1;whiteSpace=wrap;collapsible=0;recursiveResize=0;expand=0;pointerEvents=0;fillColor=#f5f5f5;strokeColor=#666666;fontColor=#333333;" vertex="1" parent="OtLjK1SxLUBlRe3WaIa--3">
          <mxGeometry x="1030" width="150" height="296" as="geometry" />
        </mxCell>
        <mxCell id="UWbwYJlnjAnOrRLH9oln-14" value="View all past orders" style="rounded=1;whiteSpace=wrap;html=1;strokeWidth=1;fillColor=#d5e8d4;strokeColor=#82b366;" vertex="1" parent="OtLjK1SxLUBlRe3WaIa--21">
          <mxGeometry x="14" y="50" width="120" height="60" as="geometry" />
        </mxCell>
        <mxCell id="OtLjK1SxLUBlRe3WaIa--38" value="Delete account" style="swimlane;connectable=0;startSize=40;html=1;whiteSpace=wrap;collapsible=0;recursiveResize=0;expand=0;pointerEvents=0;fillColor=#f5f5f5;strokeColor=#666666;fontColor=#333333;" vertex="1" parent="OtLjK1SxLUBlRe3WaIa--3">
          <mxGeometry x="1180" width="150" height="296" as="geometry" />
        </mxCell>
        <mxCell id="UWbwYJlnjAnOrRLH9oln-17" value="Confirm account deletion&amp;nbsp;" style="rounded=1;whiteSpace=wrap;html=1;strokeWidth=1;fillColor=#d5e8d4;strokeColor=#82b366;" vertex="1" parent="OtLjK1SxLUBlRe3WaIa--38">
          <mxGeometry x="13" y="50" width="120" height="60" as="geometry" />
        </mxCell>
        <mxCell id="UWbwYJlnjAnOrRLH9oln-0" value="Get help" style="swimlane;connectable=0;startSize=40;html=1;whiteSpace=wrap;collapsible=0;recursiveResize=0;expand=0;pointerEvents=0;fillColor=#f5f5f5;strokeColor=#666666;fontColor=#333333;" vertex="1" parent="OtLjK1SxLUBlRe3WaIa--3">
          <mxGeometry x="1330" width="270" height="296" as="geometry" />
        </mxCell>
        <mxCell id="UWbwYJlnjAnOrRLH9oln-20" value="Contact customer support" style="rounded=1;whiteSpace=wrap;html=1;strokeWidth=1;fillColor=#d5e8d4;strokeColor=#82b366;" vertex="1" parent="UWbwYJlnjAnOrRLH9oln-0">
          <mxGeometry x="11" y="50" width="120" height="60" as="geometry" />
        </mxCell>
        <mxCell id="UWbwYJlnjAnOrRLH9oln-24" value="Query an order or delivery" style="rounded=1;whiteSpace=wrap;html=1;strokeWidth=1;fillColor=#d5e8d4;strokeColor=#82b366;" vertex="1" parent="UWbwYJlnjAnOrRLH9oln-0">
          <mxGeometry x="131" y="50" width="120" height="60" as="geometry" />
        </mxCell>
        <mxCell id="UWbwYJlnjAnOrRLH9oln-28" value="Find information myself" style="rounded=1;whiteSpace=wrap;html=1;strokeWidth=1;fillColor=#d5e8d4;strokeColor=#82b366;" vertex="1" parent="UWbwYJlnjAnOrRLH9oln-0">
          <mxGeometry x="11" y="118" width="120" height="60" as="geometry" />
        </mxCell>
        <mxCell id="OtLjK1SxLUBlRe3WaIa--7" value="Tasks" style="swimlane;horizontal=0;points=[[0,0.5],[1,0.5]];portConstraint=eastwest;startSize=40;html=1;whiteSpace=wrap;collapsible=0;recursiveResize=0;expand=0;pointerEvents=0;fillColor=#dae8fc;strokeColor=#6c8ebf;" vertex="1" parent="OtLjK1SxLUBlRe3WaIa--2">
          <mxGeometry y="336" width="1600" height="298" as="geometry" />
        </mxCell>
        <mxCell id="OtLjK1SxLUBlRe3WaIa--26" style="swimlane;connectable=0;startSize=0;html=1;whiteSpace=wrap;collapsible=0;recursiveResize=0;expand=0;pointerEvents=0;" vertex="1" parent="OtLjK1SxLUBlRe3WaIa--7">
          <mxGeometry x="40" width="170" height="298" as="geometry" />
        </mxCell>
        <mxCell id="OtLjK1SxLUBlRe3WaIa--31" value="Retrieve forgotten password" style="rounded=1;whiteSpace=wrap;html=1;strokeWidth=1;fillColor=#dae8fc;strokeColor=#6c8ebf;" vertex="1" parent="OtLjK1SxLUBlRe3WaIa--26">
          <mxGeometry x="20" y="14" width="120" height="60" as="geometry" />
        </mxCell>
        <mxCell id="OtLjK1SxLUBlRe3WaIa--8" value="" style="swimlane;connectable=0;startSize=0;html=1;whiteSpace=wrap;collapsible=0;recursiveResize=0;expand=0;pointerEvents=0;" vertex="1" parent="OtLjK1SxLUBlRe3WaIa--7">
          <mxGeometry x="210" width="270" height="298" as="geometry" />
        </mxCell>
        <mxCell id="OtLjK1SxLUBlRe3WaIa--41" value="enter unique username (email)" style="rounded=1;whiteSpace=wrap;html=1;strokeWidth=1;fillColor=#dae8fc;strokeColor=#6c8ebf;" vertex="1" parent="OtLjK1SxLUBlRe3WaIa--8">
          <mxGeometry x="14" y="14" width="120" height="60" as="geometry" />
        </mxCell>
        <mxCell id="OtLjK1SxLUBlRe3WaIa--43" value="set two-factor authentication method" style="rounded=1;whiteSpace=wrap;html=1;strokeWidth=1;fillColor=#dae8fc;strokeColor=#6c8ebf;" vertex="1" parent="OtLjK1SxLUBlRe3WaIa--8">
          <mxGeometry x="134" y="154" width="120" height="60" as="geometry" />
        </mxCell>
        <mxCell id="OtLjK1SxLUBlRe3WaIa--44" value="set account recovery options" style="rounded=1;whiteSpace=wrap;html=1;strokeWidth=1;fillColor=#dae8fc;strokeColor=#6c8ebf;" vertex="1" parent="OtLjK1SxLUBlRe3WaIa--8">
          <mxGeometry x="16" y="154" width="120" height="60" as="geometry" />
        </mxCell>
        <mxCell id="UWbwYJlnjAnOrRLH9oln-11" value="enter password" style="rounded=1;whiteSpace=wrap;html=1;strokeWidth=1;fillColor=#dae8fc;strokeColor=#6c8ebf;" vertex="1" parent="OtLjK1SxLUBlRe3WaIa--8">
          <mxGeometry x="16" y="84" width="120" height="60" as="geometry" />
        </mxCell>
        <mxCell id="OtLjK1SxLUBlRe3WaIa--10" value="" style="swimlane;connectable=0;startSize=0;html=1;whiteSpace=wrap;collapsible=0;recursiveResize=0;expand=0;pointerEvents=0;" vertex="1" parent="OtLjK1SxLUBlRe3WaIa--7">
          <mxGeometry x="480" width="280" height="298" as="geometry" />
        </mxCell>
        <mxCell id="UWbwYJlnjAnOrRLH9oln-5" value="Delete delivery address" style="rounded=1;whiteSpace=wrap;html=1;strokeWidth=1;fillColor=#dae8fc;strokeColor=#6c8ebf;" vertex="1" parent="OtLjK1SxLUBlRe3WaIa--10">
          <mxGeometry x="138" y="14" width="120" height="60" as="geometry" />
        </mxCell>
        <mxCell id="OtLjK1SxLUBlRe3WaIa--37" value="Update delivery address" style="rounded=1;whiteSpace=wrap;html=1;strokeWidth=1;fillColor=#dae8fc;strokeColor=#6c8ebf;" vertex="1" parent="OtLjK1SxLUBlRe3WaIa--10">
          <mxGeometry x="18" y="14" width="120" height="60" as="geometry" />
        </mxCell>
        <mxCell id="UWbwYJlnjAnOrRLH9oln-7" value="Update phone number" style="rounded=1;whiteSpace=wrap;html=1;strokeWidth=1;fillColor=#dae8fc;strokeColor=#6c8ebf;" vertex="1" parent="OtLjK1SxLUBlRe3WaIa--10">
          <mxGeometry x="18" y="84" width="120" height="60" as="geometry" />
        </mxCell>
        <mxCell id="UWbwYJlnjAnOrRLH9oln-6" value="Delete phone number" style="rounded=1;whiteSpace=wrap;html=1;strokeWidth=1;fillColor=#dae8fc;strokeColor=#6c8ebf;" vertex="1" parent="OtLjK1SxLUBlRe3WaIa--10">
          <mxGeometry x="135.5" y="84" width="120" height="60" as="geometry" />
        </mxCell>
        <mxCell id="OtLjK1SxLUBlRe3WaIa--19" style="swimlane;connectable=0;startSize=0;html=1;whiteSpace=wrap;collapsible=0;recursiveResize=0;expand=0;pointerEvents=0;" vertex="1" parent="OtLjK1SxLUBlRe3WaIa--7">
          <mxGeometry x="760" width="270" height="298" as="geometry" />
        </mxCell>
        <mxCell id="UWbwYJlnjAnOrRLH9oln-4" value="Update payment method" style="rounded=1;whiteSpace=wrap;html=1;strokeWidth=1;fillColor=#dae8fc;strokeColor=#6c8ebf;" vertex="1" parent="OtLjK1SxLUBlRe3WaIa--19">
          <mxGeometry x="12" y="14" width="120" height="60" as="geometry" />
        </mxCell>
        <mxCell id="UWbwYJlnjAnOrRLH9oln-16" value="Delete payment method" style="rounded=1;whiteSpace=wrap;html=1;strokeWidth=1;fillColor=#dae8fc;strokeColor=#6c8ebf;" vertex="1" parent="OtLjK1SxLUBlRe3WaIa--19">
          <mxGeometry x="132" y="14" width="120" height="60" as="geometry" />
        </mxCell>
        <mxCell id="OtLjK1SxLUBlRe3WaIa--22" style="swimlane;connectable=0;startSize=0;html=1;whiteSpace=wrap;collapsible=0;recursiveResize=0;expand=0;pointerEvents=0;" vertex="1" parent="OtLjK1SxLUBlRe3WaIa--7">
          <mxGeometry x="1030" width="150" height="298" as="geometry" />
        </mxCell>
        <mxCell id="UWbwYJlnjAnOrRLH9oln-15" value="View itemised individual past order" style="rounded=1;whiteSpace=wrap;html=1;strokeWidth=1;fillColor=#dae8fc;strokeColor=#6c8ebf;" vertex="1" parent="OtLjK1SxLUBlRe3WaIa--22">
          <mxGeometry x="14" y="14" width="120" height="60" as="geometry" />
        </mxCell>
        <mxCell id="OtLjK1SxLUBlRe3WaIa--39" style="swimlane;connectable=0;startSize=0;html=1;whiteSpace=wrap;collapsible=0;recursiveResize=0;expand=0;pointerEvents=0;" vertex="1" parent="OtLjK1SxLUBlRe3WaIa--7">
          <mxGeometry x="1180" width="150" height="298" as="geometry" />
        </mxCell>
        <mxCell id="UWbwYJlnjAnOrRLH9oln-18" value="Receive account deletion confirmation request by email" style="rounded=1;whiteSpace=wrap;html=1;strokeWidth=1;fillColor=#dae8fc;strokeColor=#6c8ebf;" vertex="1" parent="OtLjK1SxLUBlRe3WaIa--39">
          <mxGeometry x="13" y="14" width="120" height="60" as="geometry" />
        </mxCell>
        <mxCell id="UWbwYJlnjAnOrRLH9oln-19" value="Receive account deletion confirmation" style="rounded=1;whiteSpace=wrap;html=1;strokeWidth=1;fillColor=#dae8fc;strokeColor=#6c8ebf;" vertex="1" parent="OtLjK1SxLUBlRe3WaIa--39">
          <mxGeometry x="13" y="84" width="120" height="60" as="geometry" />
        </mxCell>
        <mxCell id="UWbwYJlnjAnOrRLH9oln-1" style="swimlane;connectable=0;startSize=0;html=1;whiteSpace=wrap;collapsible=0;recursiveResize=0;expand=0;pointerEvents=0;" vertex="1" parent="OtLjK1SxLUBlRe3WaIa--7">
          <mxGeometry x="1330" width="270" height="298" as="geometry" />
        </mxCell>
        <mxCell id="UWbwYJlnjAnOrRLH9oln-21" value="Read FAQs" style="rounded=1;whiteSpace=wrap;html=1;strokeWidth=1;fillColor=#dae8fc;strokeColor=#6c8ebf;" vertex="1" parent="UWbwYJlnjAnOrRLH9oln-1">
          <mxGeometry x="11" y="14" width="120" height="60" as="geometry" />
        </mxCell>
        <mxCell id="UWbwYJlnjAnOrRLH9oln-23" value="Read legal and privacy agreements" style="rounded=1;whiteSpace=wrap;html=1;strokeWidth=1;fillColor=#dae8fc;strokeColor=#6c8ebf;" vertex="1" parent="UWbwYJlnjAnOrRLH9oln-1">
          <mxGeometry x="11" y="84" width="120" height="60" as="geometry" />
        </mxCell>
        <mxCell id="UWbwYJlnjAnOrRLH9oln-27" value="Learn about ordering and delivery" style="rounded=1;whiteSpace=wrap;html=1;strokeWidth=1;fillColor=#dae8fc;strokeColor=#6c8ebf;" vertex="1" parent="UWbwYJlnjAnOrRLH9oln-1">
          <mxGeometry x="11" y="154" width="120" height="60" as="geometry" />
        </mxCell>
        <mxCell id="UWbwYJlnjAnOrRLH9oln-26" value="Learn more about products" style="rounded=1;whiteSpace=wrap;html=1;strokeWidth=1;fillColor=#dae8fc;strokeColor=#6c8ebf;" vertex="1" parent="UWbwYJlnjAnOrRLH9oln-1">
          <mxGeometry x="11" y="224" width="120" height="60" as="geometry" />
        </mxCell>
        <mxCell id="OtLjK1SxLUBlRe3WaIa--11" value="Sub-tasks" style="swimlane;horizontal=0;points=[[0,0.5],[1,0.5]];portConstraint=eastwest;startSize=40;html=1;whiteSpace=wrap;collapsible=0;recursiveResize=0;expand=0;pointerEvents=0;fillColor=#e1d5e7;strokeColor=#9673a6;" vertex="1" parent="OtLjK1SxLUBlRe3WaIa--2">
          <mxGeometry y="634" width="1600" height="296" as="geometry" />
        </mxCell>
        <mxCell id="OtLjK1SxLUBlRe3WaIa--27" style="swimlane;connectable=0;startSize=0;html=1;whiteSpace=wrap;collapsible=0;recursiveResize=0;expand=0;pointerEvents=0;" vertex="1" parent="OtLjK1SxLUBlRe3WaIa--11">
          <mxGeometry x="40" width="170" height="296" as="geometry" />
        </mxCell>
        <mxCell id="UWbwYJlnjAnOrRLH9oln-12" value="Receive password reset link by email" style="rounded=1;whiteSpace=wrap;html=1;strokeWidth=1;fillColor=#e1d5e7;strokeColor=#9673a6;" vertex="1" parent="OtLjK1SxLUBlRe3WaIa--27">
          <mxGeometry x="20" y="16" width="120" height="60" as="geometry" />
        </mxCell>
        <mxCell id="OtLjK1SxLUBlRe3WaIa--12" value="" style="swimlane;connectable=0;startSize=0;html=1;whiteSpace=wrap;collapsible=0;recursiveResize=0;expand=0;pointerEvents=0;" vertex="1" parent="OtLjK1SxLUBlRe3WaIa--11">
          <mxGeometry x="210" width="270" height="296" as="geometry" />
        </mxCell>
        <mxCell id="OtLjK1SxLUBlRe3WaIa--42" value="ensure secure password" style="rounded=1;whiteSpace=wrap;html=1;strokeWidth=1;fillColor=#e1d5e7;strokeColor=#9673a6;" vertex="1" parent="OtLjK1SxLUBlRe3WaIa--12">
          <mxGeometry x="14" y="16" width="120" height="60" as="geometry" />
        </mxCell>
        <mxCell id="OtLjK1SxLUBlRe3WaIa--14" value="" style="swimlane;connectable=0;startSize=0;html=1;whiteSpace=wrap;collapsible=0;recursiveResize=0;expand=0;pointerEvents=0;" vertex="1" parent="OtLjK1SxLUBlRe3WaIa--11">
          <mxGeometry x="480" width="280" height="296" as="geometry" />
        </mxCell>
        <mxCell id="OtLjK1SxLUBlRe3WaIa--20" style="swimlane;connectable=0;startSize=0;html=1;whiteSpace=wrap;collapsible=0;recursiveResize=0;expand=0;pointerEvents=0;" vertex="1" parent="OtLjK1SxLUBlRe3WaIa--11">
          <mxGeometry x="760" width="270" height="296" as="geometry" />
        </mxCell>
        <mxCell id="OtLjK1SxLUBlRe3WaIa--23" style="swimlane;connectable=0;startSize=0;html=1;whiteSpace=wrap;collapsible=0;recursiveResize=0;expand=0;pointerEvents=0;" vertex="1" parent="OtLjK1SxLUBlRe3WaIa--11">
          <mxGeometry x="1030" width="150" height="296" as="geometry" />
        </mxCell>
        <mxCell id="UWbwYJlnjAnOrRLH9oln-31" value="Leave feedback" style="rounded=1;whiteSpace=wrap;html=1;strokeWidth=1;fillColor=#e1d5e7;strokeColor=#9673a6;" vertex="1" parent="OtLjK1SxLUBlRe3WaIa--23">
          <mxGeometry x="10" y="16" width="120" height="60" as="geometry" />
        </mxCell>
        <mxCell id="OtLjK1SxLUBlRe3WaIa--40" style="swimlane;connectable=0;startSize=0;html=1;whiteSpace=wrap;collapsible=0;recursiveResize=0;expand=0;pointerEvents=0;" vertex="1" parent="OtLjK1SxLUBlRe3WaIa--11">
          <mxGeometry x="1180" width="150" height="296" as="geometry" />
        </mxCell>
        <mxCell id="UWbwYJlnjAnOrRLH9oln-2" style="swimlane;connectable=0;startSize=0;html=1;whiteSpace=wrap;collapsible=0;recursiveResize=0;expand=0;pointerEvents=0;" vertex="1" parent="OtLjK1SxLUBlRe3WaIa--11">
          <mxGeometry x="1330" width="270" height="296" as="geometry" />
        </mxCell>
        <mxCell id="UWbwYJlnjAnOrRLH9oln-29" value="Read product reviews" style="rounded=1;whiteSpace=wrap;html=1;strokeWidth=1;fillColor=#e1d5e7;strokeColor=#9673a6;" vertex="1" parent="UWbwYJlnjAnOrRLH9oln-2">
          <mxGeometry x="11" y="16" width="120" height="60" as="geometry" />
        </mxCell>
        <mxCell id="UWbwYJlnjAnOrRLH9oln-30" value="Communicate with other customers" style="rounded=1;whiteSpace=wrap;html=1;strokeWidth=1;fillColor=#e1d5e7;strokeColor=#9673a6;" vertex="1" parent="UWbwYJlnjAnOrRLH9oln-2">
          <mxGeometry x="11" y="86" width="120" height="60" as="geometry" />
        </mxCell>
        <mxCell id="UWbwYJlnjAnOrRLH9oln-10" style="edgeStyle=orthogonalEdgeStyle;rounded=0;orthogonalLoop=1;jettySize=auto;html=1;dashed=1;dashPattern=1 4;fontSize=12;fontColor=#000000;" edge="1" parent="OtLjK1SxLUBlRe3WaIa--2" source="OtLjK1SxLUBlRe3WaIa--41" target="UWbwYJlnjAnOrRLH9oln-3">
          <mxGeometry relative="1" as="geometry">
            <Array as="points">
              <mxPoint x="505" y="320" />
              <mxPoint x="901" y="320" />
            </Array>
          </mxGeometry>
        </mxCell>
        <mxCell id="U-jJmerVUzA19QD3KrKk-0" value="A story map example in a cross-functional flowchart shape (Misc shape library)" style="text;html=1;strokeColor=none;fillColor=none;align=center;verticalAlign=middle;whiteSpace=wrap;rounded=0;fontSize=20;fontStyle=2" vertex="1" parent="OtLjK1SxLUBlRe3WaIa--1">
          <mxGeometry x="312" y="1010" width="1030" height="20" as="geometry" />
        </mxCell>
      </root>
    </mxGraphModel>
  </diagram>
</mxfile>
